<?xml version="1.0" encoding="UTF-8" standalone="no"?>
<!-- Generator: Adobe Illustrator 17.1.0, SVG Export Plug-In . SVG Version: 6.00 Build 0)  -->
<!DOCTYPE svg  PUBLIC '-//W3C//DTD SVG 1.1//EN'  'http://www.w3.org/Graphics/SVG/1.1/DTD/svg11.dtd'>
<svg id="Layer_1" xmlns="http://www.w3.org/2000/svg" xml:space="preserve" viewBox="-114.4 55.7 28.8 28.6" version="1.1" y="0px" x="0px" xmlns:xlink="http://www.w3.org/1999/xlink" enable-background="new -114.4 55.7 28.8 28.6">
<path d="m-85.6 65v-2.6h-3.4v-3.7h-2.9v-3h-2.6v3h-1.8v-3h-2.6v3h-1.6v-3h-2.6v3h-1.8v-3h-2.6v3h-3.4v3.7h-3.7v2.6h3.7v1.8h-3.7v2.6h3.7v1.6h-3.7v2.6h3.7v1.4h-3.7v2.6h3.7v3.3h3.4v3.6h2.6v-3.6h1.8v3.6h2.6v-3.6h1.6v3.6h2.6v-3.6h1.8v3.6h2.6v-3.6h2.9v-3.3h3.4v-2.6h-3.4v-1.4h3.4v-2.6h-3.4v-1.6h3.4v-2.6h-3.4v-1.8h3.4zm-8.6 8.7c0 0.9-0.8 1.7-1.7 1.7h-8c-0.9 0-1.7-0.8-1.7-1.7v-8c0-0.9 0.8-1.7 1.7-1.7h8c0.9 0 1.7 0.8 1.7 1.7v8z" fill="#333"/>
</svg>
