<?xml version="1.0" encoding="UTF-8" standalone="no"?>
<!-- Generator: Adobe Illustrator 17.1.0, SVG Export Plug-In . SVG Version: 6.00 Build 0)  -->
<!DOCTYPE svg  PUBLIC '-//W3C//DTD SVG 1.1//EN'  'http://www.w3.org/Graphics/SVG/1.1/DTD/svg11.dtd'>
<svg id="Layer_1" xmlns="http://www.w3.org/2000/svg" xml:space="preserve" viewBox="-113.8 141.3 29.9 29.9" version="1.1" y="0px" x="0px" xmlns:xlink="http://www.w3.org/1999/xlink" enable-background="new -113.8 141.3 29.9 29.9">
	<g fill="#333">
		<path d="m-84 159.4l-1.7-17.1c-0.1-0.6-0.6-1.1-1.2-1.1h-23.5c-0.6 0-1.1 0.5-1.2 1l-2.1 17.2c-0.1 0.6-0.1 1.5-0.1 2.2v8.5c0 0.6 0.4 1.1 1.1 1.1h27.7c0.6 0 1.1-0.4 1.1-1.1v-8.5c0-0.6-0.1-1.7-0.1-2.2zm-2.1 8.5c0 0.6-0.5 1.1-1.1 1.1h-23.5c-0.6 0-1.1-0.4-1.1-1.1v-4.3c0-0.6 0.5-1.1 1.1-1.1h23.5c0.6 0 1.1 0.4 1.1 1.1v4.3z"/>
		<path d="m-89.1 164.8h-19.2c-0.6 0-1.1 0.5-1.1 1.1 0 0.5 0.5 1.1 1.1 1.1h19.2c0.6 0 1.1-0.4 1.1-1.1s-0.5-1.1-1.1-1.1z"/>
	</g>
</svg>
