<?xml version="1.0" encoding="UTF-8" standalone="no"?>
<!-- Generator: Adobe Illustrator 17.1.0, SVG Export Plug-In . SVG Version: 6.00 Build 0)  -->
<!DOCTYPE svg  PUBLIC '-//W3C//DTD SVG 1.1//EN'  'http://www.w3.org/Graphics/SVG/1.1/DTD/svg11.dtd'>
<svg id="Layer_1" xmlns="http://www.w3.org/2000/svg" xml:space="preserve" viewBox="-114.4 225.5 30 30" version="1.1" y="0px" x="0px" xmlns:xlink="http://www.w3.org/1999/xlink" enable-background="new -114.4 225.5 30 30">
<path d="m-87.6 245v-1.6h3.2v-3.4s-0.8 0-0.8-0.8 0.8-0.8 0.8-0.8v-2.4h-30v2.3s0.8 0 0.8 0.8-0.8 0.8-0.8 0.8v3.3h2.5v1.7h5v-2.5s0-0.8 0.8-0.8 0.8 0.8 0.8 0.8v2.5h5.9m-10.2-3.9h-1.9v-3.5h1.9v3.5zm3 0h-1.9v-3.5h1.9v3.5zm3 0h-1.9v-3.5h1.9v3.5zm11 0h-1.9v-3.5h1.9v3.5zm3 0h-1.9v-3.5h1.9v3.5zm3 0h-1.9v-3.5h1.9v3.5z" fill="#333"/>
</svg>
